<svg xmlns="http://www.w3.org/2000/svg" xmlns:xlink="http://www.w3.org/1999/xlink" viewBox="0 0 350 330" width="500" height="500">
  <defs>
    <clipPath id="window">
      <path d="M275,225.43H257.87a17.6,17.6,0,0,1-17.52-17.58V170a17.6,17.6,0,0,1,17.52-17.58H275A17.6,17.6,0,0,1,292.51,170v37.83A17.61,17.61,0,0,1,275,225.43Z"/>
    </clipPath>
  </defs>
  <g transform="translate(-50 0)">
    <set attributeName="opacity" to="0"/>
    <animateTransform
      attributeName="transform"
      type="translate"
      values="-100 0; 0 0"
      dur="0.4s"
      begin="3.3s"
      calcMode="spline"
      keySplines="0.29 0.56 0.27 0.96"
      fill="freeze"/>
    <animate
      attributeType="CSS"
      attributeName="opacity"
      values="0; 1"
      dur="0.4s"
      begin="3.3s"
      fill="freeze"/>
    <path d="M91.14,327.79a2.2,2.2,0,0,1-2-2.36l13.66-193.17c1.1-15.49-4.8-21.92-8.75-24.47a1.35,1.35,0,0,1,.53-2.45C103,104,122.18,104,120,134.19L106.43,326.67a2.2,2.2,0,0,1-2.35,2Z" fill="#fff"/>
    <path d="M124.5,328.17a2.2,2.2,0,0,1-2.17-2.23l2.24-193.63c0.19-15.53-6.07-21.61-10.16-23.91a1.35,1.35,0,0,1,.39-2.47c8.36-1.9,27.49-3,27.15,27.28l-2.25,192.93a2.2,2.2,0,0,1-2.22,2.18Z" fill="#fff"/>
  </g>
  <g>
    <set attributeName="opacity" to="0"/>
    <animate
      attributeType="CSS"
      attributeName="opacity"
      values="0; 1"
      dur="0.2s"
      begin="2.8s"
      fill="freeze"/>
    <path d="M275,225.43H257.87a17.6,17.6,0,0,1-17.52-17.58V170a17.6,17.6,0,0,1,17.52-17.58H275A17.6,17.6,0,0,1,292.51,170v37.83A17.61,17.61,0,0,1,275,225.43Z" fill="none" stroke="#fff" stroke-width="2"/>
  </g>
  <g clip-path="url(#window)">
    <g transform="scale(0.5) translate(285 180)">
      <path d="M352.5,198.04h35.29a12.4,12.4,0,1,1,24.8,0h17.93" fill="none" stroke="#fff" stroke-linecap="round"
            stroke-miterlimit="10" stroke-width="2">
        <animate
          id="leftCloudAnm"
          attributeName="d"
          from="M352.5,188.04h35.29a12.4,12.4,0,1,1,24.8,0h17.93"
          to="M18.29,188.04h35.29a12.4,12.4,0,1,1,24.8,0h17.93"
          dur="3s"
          begin="1s"
          repeatCount="indefinite"/>
      </path>
      <line x1="357.09" y1="198.3" x2="420" y2="198.3" fill="none" stroke="#fff" stroke-linecap="round"
            stroke-miterlimit="10" stroke-width="2">
        <animate attributeName="x1" from="357.09" to="22.88" dur="3s" begin="1s" repeatCount="indefinite"/>
        <animate attributeName="x2" from="420" to="85.79" dur="3s" begin="1s" repeatCount="indefinite"/>
      </line>
    </g>
    <g transform="scale(0.5) translate(285 160)">
      <g>
        <path d="M378.75,173.41h-27.36a12.4,12.4,0,1,0-24.8,0h-17.94" fill="none" stroke="#fff" stroke-linecap="round"
              stroke-miterlimit="10" stroke-width="2">
          <animate
            id="rightCloudAnm"
            attributeName="d"
            from="M378.75,173.41h-27.36a12.4,12.4,0,1,0-24.8,0h-17.94"
            to="M44.54,173.41h-27.36a12.4,12.4,0,1,0-24.8,0h-17.94"
            dur="3s"
            repeatCount="indefinite"
            begin="2.7s"/>
        </path>
        <line x1="387.01" y1="173.41" x2="418.21" y2="173.41" fill="none" stroke="#fff" stroke-linecap="round"
              stroke-miterlimit="10" stroke-width="2">
          <animate attributeName="x1" from="387.01" to="52.8" dur="3s" begin="rightCloudAnm.begin" repeatCount="indefinite"/>
          <animate attributeName="x2" from="418.21" to="84" dur="3s" begin="rightCloudAnm.begin" repeatCount="indefinite"/>
        </line>
      </g>
      <line x1="358.96" y1="183.69" x2="398.74" y2="183.69" fill="none" stroke="#fff" stroke-linecap="round"
            stroke-miterlimit="10" stroke-width="2">
        <animate attributeName="x1" from="358.96" to="40.22" dur="3s" begin="rightCloudAnm.begin" repeatCount="indefinite"/>
        <animate attributeName="x2" from="398.74" to="80" dur="3s" repeatCount="indefinite" begin="rightCloudAnm.begin"/>
      </line>
    </g>
  </g>
  <g transform="translate(-100 0)">
    <set attributeName="opacity" to="0"/>
    <animateTransform
      attributeName="transform"
      type="translate"
      values="-100 0; 0 0"
      dur="0.4s"
      begin="3.2s"
      fill="freeze"/>
    <animate
      attributeType="CSS"
      attributeName="opacity"
      values="0; 1"
      dur="0.4s"
      begin="3.2s"
      fill="freeze"/>
    <path d="M257.5,259.82H196.76V245.63h55.09a9.92,9.92,0,0,1,9.9,9.93,4.26,4.26,0,0,1-4.25,4.25" fill="#a67ee5"/>
    <path d="M257.5,259.82H196.76V245.63h55.09a9.92,9.92,0,0,1,9.9,9.93A4.26,4.26,0,0,1,257.5,259.82Z" fill="none" stroke="#fff" stroke-miterlimit="10" stroke-width="2"/>
    <polygon points="185.47 328.31 171.5 328.31 165.19 286.72 179.16 286.72 185.47 328.31" fill="#a67ee5"/>
    <polygon points="185.47 328.31 171.5 328.31 165.19 286.72 179.16 286.72 185.47 328.31" fill="none" stroke="#fff" stroke-miterlimit="10" stroke-width="2"/>
    <polygon points="235.03 328.31 221.06 328.31 214.76 286.72 228.72 286.72 235.03 328.31" fill="#a67ee5"/>
    <polygon points="235.03 328.31 221.06 328.31 214.76 286.72 228.72 286.72 235.03 328.31" fill="none" stroke="#fff" stroke-miterlimit="10" stroke-width="2"/>
    <path d="M281.33,272.45H225.44a5.59,5.59,0,0,1-5.53-4.77l-10.86-72.24a17.71,17.71,0,0,0-12.49-31.31H141.48L141.16,267l15.77,23.35,47.19,8.39a12.3,12.3,0,0,0,4.22.75h73a13.53,13.53,0,0,0,0-27.06" fill="#a67ee5"/>
    <path d="M281.33,272.45H225.44a5.59,5.59,0,0,1-5.53-4.77l-10.86-72.24a17.71,17.71,0,0,0-12.49-31.31H141.48L141.16,267l15.77,23.35,47.19,8.39a12.3,12.3,0,0,0,4.22.75h73A13.53,13.53,0,0,0,281.33,272.45Z" fill="none" stroke="#fff" stroke-miterlimit="10" stroke-width="2"/>
    <path d="M162.42,267.69l-10.86-72.24a17.71,17.71,0,1,0-29-13.61,18,18,0,0,0,.79,5.25L138.65,289a12.36,12.36,0,0,0,12.21,10.54h73a13.53,13.53,0,0,0,0-27.05H167.95a5.62,5.62,0,0,1-5.53-4.78" fill="#a67ee5"/>
    <path d="M162.42,267.69l-10.86-72.24a17.71,17.71,0,1,0-29-13.61,18,18,0,0,0,.79,5.25L138.65,289a12.36,12.36,0,0,0,12.21,10.54h73a13.53,13.53,0,0,0,0-27.05H167.95A5.62,5.62,0,0,1,162.42,267.69Z" fill="none" stroke="#fff" stroke-miterlimit="10" stroke-width="2"/>
    <path d="M206.26,259.82h-72l-2.13-14.19H200.6a9.92,9.92,0,0,1,9.9,9.93,4.26,4.26,0,0,1-4.25,4.25" fill="#a67ee5"/>
    <path d="M206.26,259.82h-72l-2.13-14.19H200.6a9.92,9.92,0,0,1,9.9,9.93A4.26,4.26,0,0,1,206.26,259.82Z" fill="none" stroke="#fff" stroke-miterlimit="10" stroke-width="2"/>
    <line x1="151.57" y1="195.44" x2="209.05" y2="195.44" fill="none" stroke="#fff" stroke-linecap="round" stroke-miterlimit="10" stroke-width="2"/>
  </g>
  <g transform="translate(-50 0)">
    <set attributeName="opacity" to="0"/>
    <animate
      attributeType="CSS"
      attributeName="opacity"
      values="0; 1"
      dur="0.4s"
      begin="3.3s"
      fill="freeze"/>
    <animateTransform
      attributeName="transform"
      type="translate"
      values="-100; 0"
      dur="0.4s"
      begin="3.3s"
      fill="freeze"/>
    <animateTransform
      attributeName="transform"
      type="rotate"
      values="-3 149.48 328; 0 149.48 328; 3 149.48 328; 0 149.48 328; -3 149.48 328"
      begin="3.3s"
      dur="2s"
      repeatCount="indefinite"
      additive="sum"
      fill="freeze"/>
    <path d="M79.18,194A131,131,0,0,1,94.77,220.9a255,255,0,0,1-20.08-23.55,259,259,0,0,1-17.07-25.88A131.72,131.72,0,0,1,79.18,194" fill="#36e69a"/>
    <path d="M80.94,214.39a127.19,127.19,0,0,1,22.8,20.49A242.09,242.09,0,0,1,77.9,219.17a235.86,235.86,0,0,1-23.42-18.7,119.82,119.82,0,0,1,26.46,13.92" fill="#36e69a"/>
    <path d="M93.66,205.48a258.38,258.38,0,0,0,10.08,29.39,125.63,125.63,0,0,0-4.5-30.52,135.9,135.9,0,0,0-12.06-29.44,260.33,260.33,0,0,0,6.47,30.57" fill="#36e69a"/>
    <path d="M107.32,213.52a250.14,250.14,0,0,0,2.06,30.67,119.93,119.93,0,0,0,3.76-30.05,131.24,131.24,0,0,0-4-31.36,238.1,238.1,0,0,0-1.87,30.74" fill="#25b774"/>
    <path d="M83.08,229.56a121.93,121.93,0,0,1,26.29,14.64A225.91,225.91,0,0,1,81.21,235a228.11,228.11,0,0,1-26.37-12.69,113.61,113.61,0,0,1,28.25,7.29" fill="#25b774"/>
    <path d="M88.06,243.83A118.11,118.11,0,0,1,115.62,255a211,211,0,0,1-28.78-5.6,220.87,220.87,0,0,1-27.42-9.33,114,114,0,0,1,28.65,3.73" fill="#25b774"/>
    <path d="M118.71,224.79a238,238,0,0,0-3.1,30.25,117.11,117.11,0,0,0,8.82-28.54,127.44,127.44,0,0,0,1.42-31.19,213.92,213.92,0,0,0-7.15,29.48" fill="#25b774"/>
    <path d="M98.86,262a118.24,118.24,0,0,1,27.07,12.34,212.3,212.3,0,0,1-28.53-6.79,220.78,220.78,0,0,1-27-10.45A114.06,114.06,0,0,1,98.86,262" fill="#068e4d"/>
    <path d="M130.27,244.29a236.56,236.56,0,0,0-4.34,30.1,116.94,116.94,0,0,0,10-28.16,127.42,127.42,0,0,0,2.71-31.1,214.43,214.43,0,0,0-8.36,29.16" fill="#068e4d"/>
    <path d="M108.9,280.69a118.21,118.21,0,0,1,26.54,13.47,213.62,213.62,0,0,1-28.23-8,221.65,221.65,0,0,1-26.55-11.57,113.82,113.82,0,0,1,28.24,6.08" fill="#068e4d"/>
    <path d="M141,264.26a236.09,236.09,0,0,0-5.58,29.9,117.46,117.46,0,0,0,11.15-27.73,127.2,127.2,0,0,0,4-31A214.24,214.24,0,0,0,141,264.26" fill="#068e4d"/>
    <path d="M92.62,217.67A529.26,529.26,0,0,1,149.48,328" fill="none" stroke="#36e69a" stroke-linecap="round" stroke-linejoin="round" stroke-width="2"/>
  </g>
  <g>
    <line x1="72.03" y1="329" x2="295.52" y2="329" fill="none" stroke="#fff" stroke-linecap="round" stroke-miterlimit="10" stroke-width="2"/>
  </g>
</svg>
