<svg xmlns="http://www.w3.org/2000/svg" xmlns:xlink="http://www.w3.org/1999/xlink" viewBox="0 0 350 330" width="350">
  <g>
    <g>
      <g>
        <animate attributeType="CSS" attributeName="opacity" values="1; 0" dur="0.4s" begin="aShowImg2.begin" fill="freeze"/>
        <g>
          <animateTransform attributeName="transform"
                            type="translate"
                            values="-12 22; 3 1; -12 22"
                            keyTimes="0; 0.5; 1"
                            keySplines="0 0 0.59 1; 0.42, 0.01, 0.53, 0.95"
                            calcMode="spline"
                            dur="1s"
                            additive="sum"
                            repeatCount="indefinite"/>
          <animateTransform attributeName="transform"
                            type="scale"
                            values="1 0.9; 1 1; 1 0.9"
                            keyTimes="0; 0.5; 1"
                            keySplines="0 0 0.59 1; 0.42, 0.01, 0.53, 0.95"
                            calcMode="spline"
                            dur="1s"
                            additive="sum"
                            repeatCount="indefinite"/>
          <animateTransform attributeName="transform"
                            type="skewX"
                            values="4; 0; 4"
                            keyTimes="0; 0.5; 1"
                            keySplines="0 0 0.59 1; 0.42, 0.01, 0.53, 0.95"
                            calcMode="spline"
                            dur="1s"
                            additive="sum"
                            repeatCount="indefinite"/>
          <path d="M175.44,249.28h48.36a13.27,13.27,0,0,0,13-10.65l3.74-18.32H172.36v25.89A3.09,3.09,0,0,0,175.44,249.28Z"
                fill="none" stroke="#fff" stroke-linecap="round" stroke-linejoin="round" stroke-width="2" id="basket-wrap"/>
          <path d="M235.79,241.69h-9.22a8.31,8.31,0,0,1-8.28-8.31V220.31" fill="none" stroke="#fff" stroke-linecap="round"
                stroke-miterlimit="10" stroke-width="2"/>
          <path
            d="M185.64,231.88h-2.05a3.45,3.45,0,0,0-3.43,3.45v2.92a3.45,3.45,0,0,0,3.43,3.45h2.05a3.45,3.45,0,0,0,3.43-3.45v-2.92A3.45,3.45,0,0,0,185.64,231.88Z"
            fill="none" stroke="#fff" stroke-linecap="round" stroke-linejoin="round" stroke-width="2"/>
        </g>
      </g>
      <g>
        <animate attributeType="CSS" attributeName="opacity" values="1; 0" dur="0.4s" begin="aShowImg2.begin" fill="freeze"/>
        <animateTransform
          repeatCount="indefinite"
          attributeName="transform"
          type="translate"
          values="0 2; 0 -2; 0 2"
          calcMode="spline"
          keySplines="0.29 0.56 0.27 0.96;
                    0.29 0.56 0.27 0.96"
          dur="1.8s"/>
        <path
          d="M123.23,173.34h9.16a3.29,3.29,0,0,1,3.29,3.3v5.71a3.29,3.29,0,0,1-3.29,3.3H115.57a1.32,1.32,0,0,1-1.32-1.32v-2a9,9,0,0,1,9-9"
          fill="#068e4d"/>
        <path
          d="M123.23,173.34h9.16a3.29,3.29,0,0,1,3.29,3.3v5.71a3.29,3.29,0,0,1-3.29,3.3H115.57a1.32,1.32,0,0,1-1.32-1.32v-2A9,9,0,0,1,123.23,173.34Z"
          fill="none" stroke="#fff" stroke-linecap="round" stroke-linejoin="round" stroke-width="2"/>
        <path
          d="M123.23,207.39h9.16a3.29,3.29,0,0,0,3.29-3.3v-5.71a3.29,3.29,0,0,0-3.29-3.3H115.57a1.32,1.32,0,0,0-1.32,1.32v2a9,9,0,0,0,9,9"
          fill="#068e4d"/>
        <path
          d="M123.23,207.39h9.16a3.29,3.29,0,0,0,3.29-3.3v-5.71a3.29,3.29,0,0,0-3.29-3.3H115.57a1.32,1.32,0,0,0-1.32,1.32v2A9,9,0,0,0,123.23,207.39Z"
          fill="none" stroke="#fff" stroke-linecap="round" stroke-linejoin="round" stroke-width="2"/>
      </g>
      <g>
        <animate attributeType="CSS" attributeName="opacity" values="1; 0" dur="0.4s" begin="aShowImg2.begin" fill="freeze"/>
        <path
          d="M205,227.08c43.38,0,74.86-15.55,74.86-37s-31.48-37-74.86-37c-27.94,0-55.36,13.53-73.46,24.87a14.3,14.3,0,0,0,0,24.21c18.09,11.33,45.52,24.87,73.46,24.87"
          fill="#068e4d"/>
        <path
          d="M205,227.08c43.38,0,74.86-15.55,74.86-37s-31.48-37-74.86-37c-27.94,0-55.36,13.53-73.46,24.87a14.3,14.3,0,0,0,0,24.21C149.63,213.54,177.06,227.08,205,227.08Z"
          fill="none" stroke="#fff" stroke-width="2"/>
        <path
          d="M 205 179.09 C 176.77 179.09 148.93 184.85 132.19 189.09 C 128.24 190.09 126.19 188.75 126.11 190.43 C 125.944 185.809 128.258 181.45 132.18 179 C 148.92 168.5 176.76 154.32 204.99 154.32 C 249.8 154.32 278.63 170.32 278.63 190.07 C 278.63 190.19 278.63 192.31 278.63 192.44 C 278.26 184.49 249.53 179.07 205 179.07"
          fill="#36e69a">
        </path>
        <path
          d="M132.18,195.12c16.74,4.27,44.58,10,72.81,10,44.14,0,72.75-6.32,73.6-14.18-0.86,19.34-29.45,34.86-73.6,34.86-28.23,0-56.07-14.19-72.81-24.68a12.88,12.88,0,0,1-6-10.18c0.26,1.61,2.26,3.18,6,4.14"
          fill="#068e4d"/>
        <path
          d="M132.18,186.12c16.74-4.27,44.58-10,72.81-10,44.53,0,73.26,6.43,73.61,14.38,0,0.17,0,.34,0,0.51-0.85,7.86-29.45,14.17-73.6,14.17-28.23,0-56.07-5.76-72.81-10-3.79-1-5.79-2.53-6-4.13l0-.51c0.13-1.69,2.15-3.36,6.1-4.37"
          fill="#25b774">
          <animate attributeName="d"
                   repeatCount="indefinite"
                   calcMode="spline"
                   keySplines="0.29 0.56 0.27 0.96;
                    0.29 0.56 0.27 0.96"
                   values="M132.18,186.12c16.74-4.27,44.58-10,72.81-10,44.53,0,73.26,6.43,73.61,14.38,0,0.17,0,.34,0,0.51-0.85,7.86-29.45,14.17-73.6,14.17-28.23,0-56.07-5.76-72.81-10-3.79-1-5.79-2.53-6-4.13l0-.51c0.13-1.69,2.15-3.36,6.1-4.37;
                       M132.18,186.12C148.92,181.85,176.76,178.12,204.99,178.12C249.52,178.12,278.25,182.55,278.6,190.5C278.6,190.67,278.6,190.84,278.6,191.01,C277.75,198.87,249.15,207.18,205,207.18C176.77,207.18,148.93,199.42,132.19,195.18C128.4,194.18,126.4,192.65,126.19,191.05L126.19,190.54C126.32,188.85,128.34,187.18,132.29,186.17;
                       M132.18,186.12c16.74-4.27,44.58-10,72.81-10,44.53,0,73.26,6.43,73.61,14.38,0,0.17,0,.34,0,0.51-0.85,7.86-29.45,14.17-73.6,14.17-28.23,0-56.07-5.76-72.81-10-3.79-1-5.79-2.53-6-4.13l0-.51c0.13-1.69,2.15-3.36,6.1-4.37"
                   dur="1.8s"/>
        </path>
      </g>
      <path d="M204.25,231.88h-2.05a3.45,3.45,0,0,0-3.43,3.45v2.92a3.45,3.45,0,0,0,3.43,3.45h2.05a3.45,3.45,0,0,0,3.43-3.45v-2.92A3.44,3.44,0,0,0,204.25,231.88Z"
            fill="none" stroke="#fff" stroke-linecap="round" stroke-linejoin="round" stroke-width="2">
        <animateTransform attributeName="transform"
                          type="translate"
                          values="-12 22; 3 1; -12 22"
                          keyTimes="0; 0.5; 1"
                          keySplines="0 0 0.59 1; 0.42, 0.01, 0.53, 0.95"
                          calcMode="spline"
                          dur="1s"
                          additive="sum"
                          repeatCount="indefinite"
                          end="2.8s"/>
        <animateTransform attributeName="transform"
                          type="scale"
                          values="1 0.9; 1 1; 1 0.9"
                          keyTimes="0; 0.5; 1"
                          keySplines="0 0 0.59 1; 0.42, 0.01, 0.53, 0.95"
                          calcMode="spline"
                          dur="1s"
                          additive="sum"
                          repeatCount="indefinite"
                          end="2.8s"/>
        <animateTransform attributeName="transform"
                          type="skewX"
                          values="4; 0; 4"
                          keyTimes="0; 0.5; 1"
                          keySplines="0 0 0.59 1; 0.42, 0.01, 0.53, 0.95"
                          calcMode="spline"
                          dur="1s"
                          additive="sum"
                          repeatCount="indefinite"
                          end="2.8s"/>

        <animate
          attributeName="d"
          values="M204.25,231.88h-2.05a3.45,3.45,0,0,0-3.43,3.45v2.92a3.45,3.45,0,0,0,3.43,3.45h2.05a3.45,3.45,0,0,0,3.43-3.45v-2.92A3.44,3.44,0,0,0,204.25,231.88Z;
                  M275,152.42h-17.13a17.6,17.6,0,0,0-17.52,17.58v37.85a17.6,17.6,0,0,0,17.52,17.58h17.13a17.6,17.6,0,0,0,17.52-17.58v-37.85A17.61,17.61,0,0,0,275,152.42Z"
          dur="0.4s"
          begin="2.8s"
          calcMode="spline"
          keySplines="0.29 0.56 0.27 0.96"
          fill="freeze"/>
      </path>
      <g>
        <animate attributeType="CSS" attributeName="opacity" values="1; 0" dur="0.4s" begin="aShowImg2.begin" fill="freeze"/>
        <animateTransform
          repeatCount="indefinite"
          attributeName="transform"
          type="translate"
          values="0 -2; 0 2; 0 -2"
          calcMode="spline"
          keySplines="0.29 0.56 0.27 0.96;
                    0.29 0.56 0.27 0.96"
          dur="1.8s"
        />
        <path
          d="M123.23,173.34h9.16a3.29,3.29,0,0,1,3.29,3.3v5.71a3.29,3.29,0,0,1-3.29,3.3H115.57a1.32,1.32,0,0,1-1.32-1.32v-2a9,9,0,0,1,9-9"
          fill="#068e4d"/>
        <path
          d="M123.23,173.34h9.16a3.29,3.29,0,0,1,3.29,3.3v5.71a3.29,3.29,0,0,1-3.29,3.3H115.57a1.32,1.32,0,0,1-1.32-1.32v-2A9,9,0,0,1,123.23,173.34Z"
          fill="none" stroke="#fff" stroke-linecap="round" stroke-linejoin="round" stroke-width="2"/>
        <path
          d="M123.23,207.39h9.16a3.29,3.29,0,0,0,3.29-3.3v-5.71a3.29,3.29,0,0,0-3.29-3.3H115.57a1.32,1.32,0,0,0-1.32,1.32v2a9,9,0,0,0,9,9"
          fill="#068e4d"/>
        <path
          d="M123.23,207.39h9.16a3.29,3.29,0,0,0,3.29-3.3v-5.71a3.29,3.29,0,0,0-3.29-3.3H115.57a1.32,1.32,0,0,0-1.32,1.32v2A9,9,0,0,0,123.23,207.39Z"
          fill="none" stroke="#fff" stroke-linecap="round" stroke-linejoin="round" stroke-width="2"/>
      </g>
    </g>
    <g>
      <animate attributeType="CSS" attributeName="opacity" values="0; 1" dur="0.1s" begin="leftCloudAnim.begin"/>
      <animate attributeType="CSS" attributeName="opacity" values="1; 0" dur="0.1s" begin="leftCloudAnim.end - 0.1s" fill="freeze"/>
      <path d="M252.5,97.54h35.29a12.4,12.4,0,1,1,24.8,0h17.93" fill="none" stroke="#fff" stroke-linecap="round"
            stroke-miterlimit="10" stroke-width="2">
        <animate
          attributeName="d"
          from="M252.5,97.54h35.29a12.4,12.4,0,1,1,24.8,0h17.93"
          to="M41.77,97.54h35.29a12.4,12.4,0,1,1,24.8,0h17.93"
          dur="1.8s"
          fill="freeze"/>
      </path>
      <line x1="68.95" y1="107.8" x2="131.86" y2="107.8" fill="none" stroke="#fff" stroke-linecap="round"
            stroke-miterlimit="10" stroke-width="2">
        <animate attributeName="x1" from="257.09" to="68.95" dur="1.8s"/>
        <animate attributeName="x2" from="320" to="131.86" dur="1.8s" id="leftCloudAnim"/>
      </line>
    </g>
    <g style="opacity: 0">
      <animate attributeType="CSS" attributeName="opacity" values="0; 1" dur="0.1s" begin="rightCloudAnim.begin" fill="freeze"/>
      <animate attributeType="CSS" attributeName="opacity" values="1; 0" dur="0.1s" begin="rightCloudAnim.end - 0.1s" fill="freeze"/>
      <g>
        <path d="M278.75,82.91h-27.36a12.4,12.4,0,1,0-24.8,0h-17.94" fill="none" stroke="#fff" stroke-linecap="round"
              stroke-miterlimit="10" stroke-width="2">
          <animate
            attributeName="d"
            from="M278.75,82.91h-27.36a12.4,12.4,0,1,0-24.8,0h-17.94"
            to="M144.54,82.91h-27.36a12.4,12.4,0,1,0-24.8,0h-17.94"
            dur="1.3s"
            fill="freeze"
            begin="rightCloudAnim.begin"/>
        </path>
        <line x1="287.01" y1="82.91" x2="309.21" y2="82.91" fill="none" stroke="#fff" stroke-linecap="round"
              stroke-miterlimit="10" stroke-width="2">
          <animate attributeName="x1" from="287.01" to="152.8" dur="1.3s" fill="freeze" begin="rightCloudAnim.begin"/>
          <animate attributeName="x2" from="309.21" to="175" dur="1.3s" fill="freeze" begin="rightCloudAnim.begin"/>
        </line>
      </g>
      <line x1="258.96" y1="93.19" x2="298.74" y2="93.19" fill="none" stroke="#fff" stroke-linecap="round"
            stroke-miterlimit="10" stroke-width="2">
        <animate attributeName="x1" from="258.96" to="140.22" dur="1.3s" fill="freeze" begin="1.7s"/>
        <animate attributeName="x2" from="298.74" to="180" dur="1.3s" id="rightCloudAnim" fill="freeze" begin="1.7s"/>
      </line>
    </g>
    <g>
      <animate attributeType="CSS" attributeName="opacity" values="1; 0" dur="0.4s" begin="aShowImg2.begin" fill="freeze"/>
      <animate attributeName="x2" dur="0.2s" values="84.05; 88; 84.05; 84.05" repeatCount="indefinite" xlink:href="#top-line" begin="centerLineAnim.begin + 0.2s" />
      <animate id="centerLineAnim" attributeName="x2" dur="0.2s" values="68.77; 72; 68.77" repeatCount="indefinite" xlink:href="#center-line" />
      <animate attributeName="x2" dur="0.2s" values="84.05; 88; 84.05; 84.05" repeatCount="indefinite" xlink:href="#bottom-line" begin="centerLineAnim.begin + 0.1s"/>
      <line x1="106.25" y1="179.49" x2="84.05" y2="179.49" fill="none" stroke="#fff" stroke-linecap="round"
            stroke-miterlimit="10" stroke-width="2" id="top-line"/>
      <line x1="106.25" y1="190.98" x2="68.77" y2="190.98" fill="none" stroke="#fff" stroke-linecap="round"
            stroke-miterlimit="10" stroke-width="2" id="center-line"/>
      <line x1="106.25" y1="201.23" x2="84.05" y2="201.23" fill="none" stroke="#fff" stroke-linecap="round"
            stroke-miterlimit="10" stroke-width="2" id="bottom-line"/>
    </g>
    <g>
      <path
        d="M289.94,327.88H244.88L212.8,296.58a1.89,1.89,0,0,0-2.44,0l-10.2,10.23a1.72,1.72,0,0,1-2.25,0l-19-20.17a2.4,2.4,0,0,0-3.1,0l-26.42,25.64a1.71,1.71,0,0,1-2.25,0l-2.63-2.92a1.71,1.71,0,0,0-2.31,0L124.63,329H80.78"
        fill="none" stroke="#fff" stroke-linecap="round" stroke-miterlimit="10" stroke-width="2">
        <animate
          attributeName="d"
          values="M289.94,327.88H244.88L212.8,296.58a1.89,1.89,0,0,0-2.44,0l-10.2,10.23a1.72,1.72,0,0,1-2.25,0l-19-20.17a2.4,2.4,0,0,0-3.1,0l-26.42,25.64a1.71,1.71,0,0,1-2.25,0l-2.63-2.92a1.71,1.71,0,0,0-2.31,0L124.63,329H80.78;
                M289.94,327.88H244.88L212.8,327.88a30,30,0,0,0-2.44,0l-10.2,0a30,30,0,0,0-2.25,0l-19,0a30,30,0,0,0-3.1,0l-26.42,0a30,30,0,0,0-2.25,0l-2.63,0a30,30,0,0,0-2.31,0L124.63,327.88H80.78"
          calcMode="spline"
          keySplines="0.29 0.56 0.27 0.96"
          dur="0.5s"
          fill="freeze"
          begin="2.8s"/>
      </path>
    </g>
  </g>
  <!--2-->
  <g opacity="0">
    <animate id="aShowImg2" attributeName="opacity" values="0; 1" begin="3s" dur="0.4s" fill="freeze"/>
    <defs>
      <clipPath id="window">
        <path d="M275,225.43H257.87a17.6,17.6,0,0,1-17.52-17.58V170a17.6,17.6,0,0,1,17.52-17.58H275A17.6,17.6,0,0,1,292.51,170v37.83A17.61,17.61,0,0,1,275,225.43Z"/>
      </clipPath>
    </defs>
    <g transform="translate(-150 0)">
      <animateTransform
        attributeName="transform"
        type="translate"
        values="-150 0; 0 0"
        dur="0.2s"
        begin="aShowImg2.begin + 0.2s"
        calcMode="spline"
        keySplines="0.29 0.56 0.27 0.96"
        fill="freeze"/>
      <animate
        attributeType="CSS"
        attributeName="opacity"
        values="0; 1"
        dur="0.2s"
        begin="aShowImg2.begin + 0.2s"
        fill="freeze"/>
      <path d="M91.14,327.79a2.2,2.2,0,0,1-2-2.36l13.66-193.17c1.1-15.49-4.8-21.92-8.75-24.47a1.35,1.35,0,0,1,.53-2.45C103,104,122.18,104,120,134.19L106.43,326.67a2.2,2.2,0,0,1-2.35,2Z" fill="#fff"/>
      <path d="M124.5,328.17a2.2,2.2,0,0,1-2.17-2.23l2.24-193.63c0.19-15.53-6.07-21.61-10.16-23.91a1.35,1.35,0,0,1,.39-2.47c8.36-1.9,27.49-3,27.15,27.28l-2.25,192.93a2.2,2.2,0,0,1-2.22,2.18Z" fill="#fff"/>
    </g>
    <g clip-path="url(#window)">
      <g transform="scale(0.5) translate(285 180)">
        <path d="M352.5,198.04h35.29a12.4,12.4,0,1,1,24.8,0h17.93" fill="none" stroke="#fff" stroke-linecap="round"
              stroke-miterlimit="10" stroke-width="2">
          <animate
            id="leftCloudAnm"
            attributeName="d"
            from="M352.5,188.04h35.29a12.4,12.4,0,1,1,24.8,0h17.93"
            to="M18.29,188.04h35.29a12.4,12.4,0,1,1,24.8,0h17.93"
            dur="3s"
            begin="1s"
            repeatCount="indefinite"/>
        </path>
        <line x1="357.09" y1="198.3" x2="420" y2="198.3" fill="none" stroke="#fff" stroke-linecap="round"
              stroke-miterlimit="10" stroke-width="2">
          <animate attributeName="x1" from="357.09" to="22.88" dur="3s" begin="1s" repeatCount="indefinite"/>
          <animate attributeName="x2" from="420" to="85.79" dur="3s" begin="1s" repeatCount="indefinite"/>
        </line>
      </g>
      <g transform="scale(0.5) translate(285 160)">
        <g>
          <path d="M378.75,173.41h-27.36a12.4,12.4,0,1,0-24.8,0h-17.94" fill="none" stroke="#fff" stroke-linecap="round"
                stroke-miterlimit="10" stroke-width="2">
            <animate
              id="rightCloudAnm"
              attributeName="d"
              from="M378.75,173.41h-27.36a12.4,12.4,0,1,0-24.8,0h-17.94"
              to="M44.54,173.41h-27.36a12.4,12.4,0,1,0-24.8,0h-17.94"
              dur="3s"
              repeatCount="indefinite"
              begin="2.7s"/>
          </path>
          <line x1="387.01" y1="173.41" x2="418.21" y2="173.41" fill="none" stroke="#fff" stroke-linecap="round"
                stroke-miterlimit="10" stroke-width="2">
            <animate attributeName="x1" from="387.01" to="52.8" dur="3s" begin="rightCloudAnm.begin" repeatCount="indefinite"/>
            <animate attributeName="x2" from="418.21" to="84" dur="3s" begin="rightCloudAnm.begin" repeatCount="indefinite"/>
          </line>
        </g>
        <line x1="358.96" y1="183.69" x2="398.74" y2="183.69" fill="none" stroke="#fff" stroke-linecap="round"
              stroke-miterlimit="10" stroke-width="2">
          <animate attributeName="x1" from="358.96" to="40.22" dur="3s" begin="rightCloudAnm.begin" repeatCount="indefinite"/>
          <animate attributeName="x2" from="398.74" to="80" dur="3s" repeatCount="indefinite" begin="rightCloudAnm.begin"/>
        </line>
      </g>
    </g>
    <g transform="translate(-150 0)">
      <set attributeName="opacity" to="0"/>
      <animateTransform
        attributeName="transform"
        type="translate"
        values="-150 0; 0 0"
        dur="0.2s"
        begin="aShowImg2.begin"
        fill="freeze"/>
      <animate
        attributeType="CSS"
        attributeName="opacity"
        values="0; 1"
        dur="0.2s"
        begin="aShowImg2.begin"
        fill="freeze"/>
      <path d="M257.5,259.82H196.76V245.63h55.09a9.92,9.92,0,0,1,9.9,9.93,4.26,4.26,0,0,1-4.25,4.25" fill="#a67ee5"/>
      <path d="M257.5,259.82H196.76V245.63h55.09a9.92,9.92,0,0,1,9.9,9.93A4.26,4.26,0,0,1,257.5,259.82Z" fill="none" stroke="#fff" stroke-miterlimit="10" stroke-width="2"/>
      <polygon points="185.47 328.31 171.5 328.31 165.19 286.72 179.16 286.72 185.47 328.31" fill="#a67ee5"/>
      <polygon points="185.47 328.31 171.5 328.31 165.19 286.72 179.16 286.72 185.47 328.31" fill="none" stroke="#fff" stroke-miterlimit="10" stroke-width="2"/>
      <polygon points="235.03 328.31 221.06 328.31 214.76 286.72 228.72 286.72 235.03 328.31" fill="#a67ee5"/>
      <polygon points="235.03 328.31 221.06 328.31 214.76 286.72 228.72 286.72 235.03 328.31" fill="none" stroke="#fff" stroke-miterlimit="10" stroke-width="2"/>
      <path d="M281.33,272.45H225.44a5.59,5.59,0,0,1-5.53-4.77l-10.86-72.24a17.71,17.71,0,0,0-12.49-31.31H141.48L141.16,267l15.77,23.35,47.19,8.39a12.3,12.3,0,0,0,4.22.75h73a13.53,13.53,0,0,0,0-27.06" fill="#a67ee5"/>
      <path d="M281.33,272.45H225.44a5.59,5.59,0,0,1-5.53-4.77l-10.86-72.24a17.71,17.71,0,0,0-12.49-31.31H141.48L141.16,267l15.77,23.35,47.19,8.39a12.3,12.3,0,0,0,4.22.75h73A13.53,13.53,0,0,0,281.33,272.45Z" fill="none" stroke="#fff" stroke-miterlimit="10" stroke-width="2"/>
      <path d="M162.42,267.69l-10.86-72.24a17.71,17.71,0,1,0-29-13.61,18,18,0,0,0,.79,5.25L138.65,289a12.36,12.36,0,0,0,12.21,10.54h73a13.53,13.53,0,0,0,0-27.05H167.95a5.62,5.62,0,0,1-5.53-4.78" fill="#a67ee5"/>
      <path d="M162.42,267.69l-10.86-72.24a17.71,17.71,0,1,0-29-13.61,18,18,0,0,0,.79,5.25L138.65,289a12.36,12.36,0,0,0,12.21,10.54h73a13.53,13.53,0,0,0,0-27.05H167.95A5.62,5.62,0,0,1,162.42,267.69Z" fill="none" stroke="#fff" stroke-miterlimit="10" stroke-width="2"/>
      <path d="M206.26,259.82h-72l-2.13-14.19H200.6a9.92,9.92,0,0,1,9.9,9.93,4.26,4.26,0,0,1-4.25,4.25" fill="#a67ee5"/>
      <path d="M206.26,259.82h-72l-2.13-14.19H200.6a9.92,9.92,0,0,1,9.9,9.93A4.26,4.26,0,0,1,206.26,259.82Z" fill="none" stroke="#fff" stroke-miterlimit="10" stroke-width="2"/>
      <line x1="151.57" y1="195.44" x2="209.05" y2="195.44" fill="none" stroke="#fff" stroke-linecap="round" stroke-miterlimit="10" stroke-width="2"/>
    </g>
    <g transform="translate(-150 0)">
      <set attributeName="opacity" to="0"/>
      <animate
        attributeType="CSS"
        attributeName="opacity"
        values="0; 1"
        dur="0.2s"
        begin="aShowImg2.begin + 0.2s"
        fill="freeze"/>
      <animateTransform
        attributeName="transform"
        type="translate"
        values="-150; 0"
        dur="0.2s"
        begin="aShowImg2.begin + 0.2s"
        fill="freeze"/>
      <animateTransform
        attributeName="transform"
        type="rotate"
        values="-3 149.48 328; 0 149.48 328; 3 149.48 328; 0 149.48 328; -3 149.48 328"
        begin="aShowImg2.begin + 0.2s"
        dur="2s"
        repeatCount="indefinite"
        additive="sum"
        fill="freeze"/>
      <path d="M79.18,194A131,131,0,0,1,94.77,220.9a255,255,0,0,1-20.08-23.55,259,259,0,0,1-17.07-25.88A131.72,131.72,0,0,1,79.18,194" fill="#36e69a"/>
      <path d="M80.94,214.39a127.19,127.19,0,0,1,22.8,20.49A242.09,242.09,0,0,1,77.9,219.17a235.86,235.86,0,0,1-23.42-18.7,119.82,119.82,0,0,1,26.46,13.92" fill="#36e69a"/>
      <path d="M93.66,205.48a258.38,258.38,0,0,0,10.08,29.39,125.63,125.63,0,0,0-4.5-30.52,135.9,135.9,0,0,0-12.06-29.44,260.33,260.33,0,0,0,6.47,30.57" fill="#36e69a"/>
      <path d="M107.32,213.52a250.14,250.14,0,0,0,2.06,30.67,119.93,119.93,0,0,0,3.76-30.05,131.24,131.24,0,0,0-4-31.36,238.1,238.1,0,0,0-1.87,30.74" fill="#25b774"/>
      <path d="M83.08,229.56a121.93,121.93,0,0,1,26.29,14.64A225.91,225.91,0,0,1,81.21,235a228.11,228.11,0,0,1-26.37-12.69,113.61,113.61,0,0,1,28.25,7.29" fill="#25b774"/>
      <path d="M88.06,243.83A118.11,118.11,0,0,1,115.62,255a211,211,0,0,1-28.78-5.6,220.87,220.87,0,0,1-27.42-9.33,114,114,0,0,1,28.65,3.73" fill="#25b774"/>
      <path d="M118.71,224.79a238,238,0,0,0-3.1,30.25,117.11,117.11,0,0,0,8.82-28.54,127.44,127.44,0,0,0,1.42-31.19,213.92,213.92,0,0,0-7.15,29.48" fill="#25b774"/>
      <path d="M98.86,262a118.24,118.24,0,0,1,27.07,12.34,212.3,212.3,0,0,1-28.53-6.79,220.78,220.78,0,0,1-27-10.45A114.06,114.06,0,0,1,98.86,262" fill="#068e4d"/>
      <path d="M130.27,244.29a236.56,236.56,0,0,0-4.34,30.1,116.94,116.94,0,0,0,10-28.16,127.42,127.42,0,0,0,2.71-31.1,214.43,214.43,0,0,0-8.36,29.16" fill="#068e4d"/>
      <path d="M108.9,280.69a118.21,118.21,0,0,1,26.54,13.47,213.62,213.62,0,0,1-28.23-8,221.65,221.65,0,0,1-26.55-11.57,113.82,113.82,0,0,1,28.24,6.08" fill="#068e4d"/>
      <path d="M141,264.26a236.09,236.09,0,0,0-5.58,29.9,117.46,117.46,0,0,0,11.15-27.73,127.2,127.2,0,0,0,4-31A214.24,214.24,0,0,0,141,264.26" fill="#068e4d"/>
      <path d="M92.62,217.67A529.26,529.26,0,0,1,149.48,328" fill="none" stroke="#36e69a" stroke-linecap="round" stroke-linejoin="round" stroke-width="2"/>
    </g>
  </g>
</svg>
